name analog
datacolumns 19
datarows 19
range 0.6005 0.6095
endheader
time	ground_force_vx	ground_force_vy	ground_force_vz	ground_force_px	ground_force_py	ground_force_pz	l_ground_force_vx	l_ground_force_vy	l_ground_force_vz	l_ground_force_px	l_ground_force_py	l_ground_force_pz	ground_torque_x	ground_torque_y	ground_torque_z	l_ground_torque_x	l_ground_torque_y	l_ground_torque_z
0.6005	-0.0	-0.0	-0.0	13.111966133117676	71.52566528320312	-454.1933288574219	-6.918338298797607	-72.60262298583984	-437.8404846191406	-0.0	-0.0	-0.0	-0.0	-0.0	-0.0	59714.40234375	14184.0927734375	-8744.958984375
0.601	-0.0	-0.0	-0.0	12.62192726135254	71.66175079345703	-457.3716125488281	-7.4517059326171875	-73.30801391601562	-441.8413391113281	-0.0	-0.0	-0.0	-0.0	-0.0	-0.0	60121.24609375	14359.5810546875	-8849.142578125
0.6015	-0.0	-0.0	-0.0	12.21885585784912	72.15292358398438	-460.1846008300781	-7.893538951873779	-73.52995300292969	-442.90728759765625	-0.0	-0.0	-0.0	-0.0	-0.0	-0.0	60529.44140625	14451.19921875	-9013.0712890625
0.602	-0.0	-0.0	-0.0	11.910539627075195	72.95355224609375	-463.0164184570313	-8.294828414916992	-73.88145446777344	-443.9419250488281	-0.0	-0.0	-0.0	-0.0	-0.0	-0.0	60547.828125	14196.6640625	-9116.5703125
0.6025	-0.0	-0.0	-0.0	11.776870727539062	72.86437225341797	-465.1401062011719	-8.42752456665039	-73.83627319335938	-445.1657104492188	-0.0	-0.0	-0.0	-0.0	-0.0	-0.0	60778.0859375	14218.9921875	-9116.88671875
0.603	-0.0	-0.0	-0.0	11.953826904296877	73.48859405517578	-466.7265319824219	-8.604448318481445	-74.3249282836914	-443.9453125	-0.0	-0.0	-0.0	-0.0	-0.0	-0.0	60803.4921875	14384.4482421875	-9161.521484375
0.6035	-0.0	-0.0	-0.0	11.507635116577148	73.13136291503906	-466.3746337890625	-8.694412231445312	-73.52799224853516	-444.119384765625	-0.0	-0.0	-0.0	-0.0	-0.0	-0.0	60660.84765625	14117.6689453125	-9161.130859375
0.604	-0.0	-0.0	-0.0	11.37407398223877	72.82007598876953	-465.6694946289063	-8.959789276123047	-73.30641174316406	-444.1197204589844	-0.0	-0.0	-0.0	-0.0	-0.0	-0.0	60649.12890625	14276.9609375	-9206.16015625
0.6045	-0.0	-0.0	-0.0	11.641929626464844	73.04230499267578	-466.9038391113281	-9.137346267700195	-73.39505004882812	-442.7253112792969	-0.0	-0.0	-0.0	-0.0	-0.0	-0.0	60586.859375	14091.990234375	-9206.275390625
0.605	-0.0	-0.0	-0.0	11.820289611816406	73.26547241210938	-467.963134765625	-9.447723388671877	-73.61614990234375	-444.8189697265625	-0.0	-0.0	-0.0	-0.0	-0.0	-0.0	60765.66796875	14017.2763671875	-9161.92578125
0.6055	-0.0	-0.0	-0.0	12.355770111083984	73.26496124267578	-469.9063720703125	-9.757967948913574	-73.96946716308594	-447.2632446289063	-0.0	-0.0	-0.0	-0.0	-0.0	-0.0	61381.015625	13942.6416015625	-9147.40234375
0.606	-0.0	-0.0	-0.0	12.177059173583984	73.30958557128906	-471.1336975097656	-9.492513656616213	-74.27877044677734	-449.529541015625	-0.0	-0.0	-0.0	-0.0	-0.0	-0.0	61664.05078125	13928.8134765625	-9117.76171875
0.6065	-0.0	-0.0	-0.0	11.955076217651367	73.70954895019531	-470.9697570800781	-8.783306121826172	-74.05758666992188	-451.4542541503906	-0.0	-0.0	-0.0	-0.0	-0.0	-0.0	61620.125	13822.8076171875	-9146.9072265625
0.607	-0.0	-0.0	-0.0	11.55246353149414	74.33296966552734	-472.0238037109375	-8.826959609985352	-74.10237121582031	-450.5810852050781	-0.0	-0.0	-0.0	-0.0	-0.0	-0.0	61820.79296875	13849.6181640625	-9028.53125
0.6075	-0.0	-0.0	-0.0	11.282626152038574	74.55580139160156	-473.0831298828125	-8.5162353515625	-73.30818176269531	-448.4910888671875	-0.0	-0.0	-0.0	-0.0	-0.0	-0.0	61642.2578125	13778.85546875	-9042.5439453125
0.608	-0.0	-0.0	-0.0	10.751063346862791	74.91291046142578	-473.7861633300781	-8.560253143310547	-72.6874008178711	-448.841064453125	-0.0	-0.0	-0.0	-0.0	-0.0	-0.0	61509.875	13572.244140625	-8953.201171875
0.6085	-0.0	-0.0	-0.0	10.702385902404783	74.78328704833984	-474.1383666992188	-8.248434066772461	-72.86373138427734	-450.4055786132813	-0.0	-0.0	-0.0	-0.0	-0.0	-0.0	61947.80078125	13590.8212890625	-8982.9140625
0.609	-0.0	-0.0	-0.0	10.750406265258787	75.09505462646484	-476.9716491699219	-8.337859153747559	-73.397216796875	-455.1247863769531	-0.0	-0.0	-0.0	-0.0	-0.0	-0.0	62476.625	13645.2861328125	-9013.734375
0.6095	-0.0	-0.0	-0.0	11.05962371826172	74.95743560791016	-479.0861511230469	-8.648744583129883	-74.10411071777344	-457.55224609375	-0.0	-0.0	-0.0	-0.0	-0.0	-0.0	63012.03515625	13714.9267578125	-8954.2216796875
